<?xml version="1.0" encoding="UTF-8" standalone="no"?>
<svg
   xmlns:dc="http://purl.org/dc/elements/1.1/"
   xmlns:cc="http://creativecommons.org/ns#"
   xmlns:rdf="http://www.w3.org/1999/02/22-rdf-syntax-ns#"
   xmlns:svg="http://www.w3.org/2000/svg"
   xmlns="http://www.w3.org/2000/svg"
   viewBox="0 0 303.58533 326.17468"
   height="326.17468"
   width="303.58533"
   xml:space="preserve"
   id="svg2"
   version="1.1"><metadata
     id="metadata8"><rdf:RDF><cc:Work
         rdf:about=""><dc:format>image/svg+xml</dc:format><dc:type
           rdf:resource="http://purl.org/dc/dcmitype/StillImage" /><dc:title></dc:title></cc:Work></rdf:RDF></metadata><defs
     id="defs6"><clipPath
       id="clipPath38"
       clipPathUnits="userSpaceOnUse"><path
         style="clip-rule:evenodd"
         id="path36"
         d="M -26.6374,-9.69533 -55.72375,70.21791 -2.44894,89.60857 26.6374,9.69533 C 28.77922,3.81078 18.58969,-5.30013 3.87807,-10.65479 c -14.71161,-5.35466 -28.37364,-4.92509 -30.51547,0.95946" /></clipPath><clipPath
       id="clipPath50"
       clipPathUnits="userSpaceOnUse"><path
         style="clip-rule:evenodd"
         id="path48"
         d="m -60.52158,-82.36082 -67.86737,186.46189 159.82451,58.17202 67.86736,-186.4619 -159.8245,-58.17201 M -26.6374,-9.69533 -55.72375,70.21791 -2.44894,89.60857 26.6374,9.69533 C 28.77922,3.81078 18.58969,-5.30013 3.87807,-10.65479 c -14.71161,-5.35466 -28.37364,-4.92509 -30.51547,0.95946" /></clipPath></defs><g
     transform="matrix(1.3333333,0,0,-1.3333333,0,326.17467)"
     id="g10"><g
       transform="translate(128.387,82.36)"
       id="g14"><g
         id="g16"><g
           id="g18" /><path
           d="m -2.44896,89.60857 c -2.14181,5.88455 -15.80384,6.31411 -30.51547,0.95945 -14.71163,-5.35464 -24.90117,-14.46557 -22.75934,-20.35012 2.14182,-5.88456 15.80385,-6.3141 30.51547,-0.95946 14.71163,5.35466 24.90117,14.46557 22.75934,20.35013 z"
           style="fill:none;stroke:#000000;stroke-width:0.3985;stroke-linecap:butt;stroke-linejoin:miter;stroke-miterlimit:10;stroke-dasharray:none;stroke-opacity:1"
           id="path20" /><path
           d="M -26.6374,-9.69533 -55.72375,70.21791"
           style="fill:none;stroke:#000000;stroke-width:0.3985;stroke-linecap:butt;stroke-linejoin:miter;stroke-miterlimit:10;stroke-dasharray:none;stroke-opacity:1"
           id="path22" /><path
           d="M 26.6374,9.69533 -2.44894,89.60857"
           style="fill:none;stroke:#000000;stroke-width:0.3985;stroke-linecap:butt;stroke-linejoin:miter;stroke-miterlimit:10;stroke-dasharray:none;stroke-opacity:1"
           id="path24" /><path
           d="M 26.6374,9.69533 C 28.77922,3.81078 18.58969,-5.30013 3.87807,-10.65479 c -14.71161,-5.35466 -28.37364,-4.92509 -30.51547,0.95946"
           style="fill:none;stroke:#000000;stroke-width:0.3985;stroke-linecap:butt;stroke-linejoin:miter;stroke-miterlimit:10;stroke-dasharray:none;stroke-opacity:1"
           id="path26" /><g
           id="g28"><path
             d="M 26.6374,9.69533 C 24.49557,15.57988 10.83354,16.00945 -3.87807,10.65479 -18.58969,5.30013 -28.77922,-3.81078 -26.6374,-9.69533"
             style="fill:none;stroke:#000000;stroke-width:0.3985;stroke-linecap:butt;stroke-linejoin:miter;stroke-miterlimit:10;stroke-dasharray:2.98883, 2.98883;stroke-dashoffset:0;stroke-opacity:1"
             id="path30" /></g><g
           id="g32"><g
             id="g34"
             clip-path="url(#clipPath38)"><g
               id="g40"><path
                 d="M -38.78133,106.54967 9.69533,-26.6374"
                 style="fill:none;stroke:#000000;stroke-width:0.79701;stroke-linecap:butt;stroke-linejoin:miter;stroke-miterlimit:10;stroke-dasharray:2.98883, 2.98883;stroke-dashoffset:0;stroke-opacity:1"
                 id="path42" /></g></g></g><g
           id="g44"><g
             id="g46"
             clip-path="url(#clipPath50)"><g
               id="g52"><path
                 d="M -38.78133,106.54967 9.69533,-26.6374"
                 style="fill:none;stroke:#000000;stroke-width:0.79701;stroke-linecap:butt;stroke-linejoin:miter;stroke-miterlimit:10;stroke-dasharray:none;stroke-opacity:1"
                 id="path54" /></g></g></g></g></g></g></svg>