<?xml version="1.0" encoding="UTF-8" standalone="no"?>
<!DOCTYPE svg PUBLIC "-//W3C//DTD SVG 1.1//EN"
 "http://www.w3.org/Graphics/SVG/1.1/DTD/svg11.dtd">
<!-- Generated by graphviz version 2.40.1 (20161225.0304)
 -->
<!-- Title: %3 Pages: 1 -->
<svg width="428pt" height="307pt"
 viewBox="0.00 0.00 428.24 307.00" xmlns="http://www.w3.org/2000/svg" xmlns:xlink="http://www.w3.org/1999/xlink">
<g id="graph0" class="graph" transform="scale(1 1) rotate(0) translate(4 303)">
<title>%3</title>
<polygon fill="#ffffff" stroke="transparent" points="-4,4 -4,-303 424.2416,-303 424.2416,4 -4,4"/>
<g id="clust1" class="cluster">
<title>cluster_encchar</title>
<polygon fill="#d3d3d3" stroke="#000000" points="8,-79 8,-291 222,-291 222,-79 8,-79"/>
</g>
<!-- codeunit -->
<g id="node1" class="node">
<title>codeunit</title>
<ellipse fill="none" stroke="#000000" cx="115" cy="-18" rx="57.6901" ry="18"/>
<text text-anchor="middle" x="115" y="-14.3" font-family="Times,serif" font-size="14.00" fill="#000000">Code Unit</text>
</g>
<!-- codepo -->
<g id="node3" class="node">
<title>codepo</title>
<ellipse fill="none" stroke="#000000" cx="115" cy="-105" rx="61.99" ry="18"/>
<text text-anchor="middle" x="115" y="-101.3" font-family="Times,serif" font-size="14.00" fill="#000000">Code Point</text>
</g>
<!-- codeunit&#45;&gt;codepo -->
<g id="edge1" class="edge">
<title>codeunit&#45;&gt;codepo</title>
<path fill="none" stroke="#000000" d="M115,-36.0265C115,-47.8082 115,-63.4393 115,-76.8419"/>
<polygon fill="#000000" stroke="#000000" points="111.5001,-76.9966 115,-86.9966 118.5001,-76.9967 111.5001,-76.9966"/>
<text text-anchor="middle" x="159.5" y="-57.8" font-family="Times,serif" font-size="14.00" fill="#000000">one or many</text>
</g>
<!-- abschar -->
<g id="node2" class="node">
<title>abschar</title>
<ellipse fill="none" stroke="#000000" cx="115" cy="-265" rx="99.3824" ry="18"/>
<text text-anchor="middle" x="115" y="-261.3" font-family="Times,serif" font-size="14.00" fill="#000000">Abstract Character</text>
</g>
<!-- codepo&#45;&gt;abschar -->
<g id="edge2" class="edge">
<title>codepo&#45;&gt;abschar</title>
<path fill="none" stroke="#000000" d="M99.2877,-131.7786C88.8344,-152.9285 78.1754,-183.2361 85,-210 87.4868,-219.7523 92.0952,-229.6402 96.9668,-238.2916"/>
<polygon fill="#000000" stroke="#000000" points="102.4764,-133.2339 104.0126,-122.7511 96.2744,-129.9879 102.4764,-133.2339"/>
<polygon fill="#000000" stroke="#000000" points="94.1225,-240.3541 102.2681,-247.129 100.1253,-236.7531 94.1225,-240.3541"/>
<text text-anchor="middle" x="154" y="-188.3" font-family="Times,serif" font-size="14.00" fill="#000000">Encoded Character</text>
</g>
<!-- grcl -->
<g id="node4" class="node">
<title>grcl</title>
<ellipse fill="none" stroke="#000000" cx="326" cy="-192" rx="94.4839" ry="18"/>
<text text-anchor="middle" x="326" y="-188.3" font-family="Times,serif" font-size="14.00" fill="#000000">Grapheme cluster</text>
</g>
<!-- codepo&#45;&gt;grcl -->
<g id="edge3" class="edge">
<title>codepo&#45;&gt;grcl</title>
<path fill="none" stroke="#000000" d="M221.9989,-149.118C241.0959,-156.9921 260.1274,-164.8393 276.5898,-171.6271"/>
<polygon fill="#000000" stroke="#000000" points="275.4911,-174.9599 286.0703,-175.5361 278.1595,-168.4884 275.4911,-174.9599"/>
<text text-anchor="middle" x="277.5" y="-144.8" font-family="Times,serif" font-size="14.00" fill="#000000">one or many</text>
</g>
</g>
</svg>
